<svg xmlns="http://www.w3.org/2000/svg" version="1.1" xmlns:xlink="http://www.w3.org/1999/xlink" xmlns:svgjs="http://svgjs.dev/svgjs" width="1440" height="560" preserveAspectRatio="none" viewBox="0 0 1440 560"><g mask="url(&quot;#SvgjsMask1532&quot;)" fill="none"><rect width="1440" height="560" x="0" y="0" fill="url(&quot;#SvgjsLinearGradient1533&quot;)"></rect><path d="M290.7208380693027 315.61330740670365L227.2681108357719 388.6073201681697 300.262123597238 452.0600474017005 363.71485083076874 379.0660346402345z" fill="rgba(28, 83, 142, 0.4)" class="triangle-float2"></path><path d="M228.19093329647293-26.64694442897801L125.86186390023893-50.271471580048754 102.2373367491682 52.05759781618526 204.5664061454022 75.68212496725599z" fill="rgba(28, 83, 142, 0.4)" class="triangle-float3"></path><path d="M205.5236056002759 368.6457763298125L194.75263032150997 245.5329655417691 71.63981953346655 256.303940820535 82.41079481223248 379.41675160857847z" fill="rgba(28, 83, 142, 0.4)" class="triangle-float1"></path><path d="M608.794,775.356C659.405,775.317,711.212,762.076,739.136,719.866C769.955,673.28,778.626,611.004,748.738,563.816C720.346,518.99,661.854,514.346,608.794,514.078C555.066,513.806,495.16,517.02,466.376,562.388C436.113,610.087,446.701,673.111,478.102,720.068C506.284,762.211,558.096,775.395,608.794,775.356" fill="rgba(28, 83, 142, 0.4)" class="triangle-float3"></path><path d="M1288.775477067805 192.4121254475742L1329.4547897367922 279.6491929877891 1376.0125446080199 151.73281277858706z" fill="rgba(28, 83, 142, 0.4)" class="triangle-float2"></path><path d="M1230.423,78.416C1253.933,77.069,1268.188,55.505,1280.28,35.298C1292.866,14.266,1308.607,-10.325,1296.163,-31.441C1283.806,-52.409,1254.76,-49.529,1230.423,-49.3C1206.691,-49.077,1179.99,-49.949,1166.793,-30.223C1152.506,-8.868,1156.596,19.47,1169.582,41.641C1182.419,63.557,1205.066,79.869,1230.423,78.416" fill="rgba(28, 83, 142, 0.4)" class="triangle-float3"></path><path d="M1408.029,441.337C1451.171,442.823,1497.404,435.926,1521.639,400.203C1548.599,360.462,1550.75,307.66,1527.05,265.893C1503.062,223.619,1456.617,198.646,1408.029,199.985C1361.588,201.265,1321.377,230.983,1299.851,272.154C1279.84,310.428,1283.942,356.432,1307.208,392.819C1328.742,426.497,1368.079,439.961,1408.029,441.337" fill="rgba(28, 83, 142, 0.4)" class="triangle-float1"></path><path d="M92.67 74.59 a107.17 107.17 0 1 0 214.34 0 a107.17 107.17 0 1 0 -214.34 0z" fill="rgba(28, 83, 142, 0.4)" class="triangle-float1"></path><path d="M149.502959947843 136.6474021425974L213.46447830934846 218.51441235177015 231.36997015701576 72.68588378109195z" fill="rgba(28, 83, 142, 0.4)" class="triangle-float1"></path><path d="M507.569,647.574C549.521,648.1,586.759,622.243,607.385,585.708C627.656,549.802,627.346,506.522,607.653,470.296C586.987,432.281,550.787,399.997,507.569,402.097C466.721,404.082,442.106,443.097,423.024,479.268C405.592,512.312,395.229,549.872,411.999,583.257C430.473,620.034,466.416,647.058,507.569,647.574" fill="rgba(28, 83, 142, 0.4)" class="triangle-float3"></path><path d="M744.52 517.23 a170.41 170.41 0 1 0 340.82 0 a170.41 170.41 0 1 0 -340.82 0z" fill="rgba(28, 83, 142, 0.4)" class="triangle-float3"></path><path d="M222.23413354292336 248.26187250723973L98.93287428411901 308.3999148589668 282.3721758946504 371.5631317660441z" fill="rgba(28, 83, 142, 0.4)" class="triangle-float2"></path><path d="M1148.071,402.661C1183.634,404.693,1217.063,385.19,1235.483,354.702C1254.561,323.125,1258.739,282.922,1239.393,251.509C1220.808,221.332,1183.511,212.461,1148.071,212.767C1113.288,213.067,1075.955,222.45,1059.44,253.063C1043.48,282.647,1059.27,316.691,1076.404,345.611C1093.085,373.767,1115.398,400.794,1148.071,402.661" fill="rgba(28, 83, 142, 0.4)" class="triangle-float2"></path><path d="M981.1496567884865 185.27902591677696L1071.424069212833 199.57708820423343 995.4477190759429 95.00461349243037z" fill="rgba(28, 83, 142, 0.4)" class="triangle-float3"></path><path d="M188.09296211716213 364.34923285670396L91.62357402056183 359.2934864577673 86.56782762162518 455.7628745543676 183.03721571822547 460.8186209533043z" fill="rgba(28, 83, 142, 0.4)" class="triangle-float2"></path><path d="M1500.169,302.185C1550.501,301.201,1588.941,263.443,1614.816,220.26C1641.636,175.499,1660.691,121.621,1635.858,75.728C1610.103,28.13,1554.223,5.722,1500.169,8.384C1450.437,10.833,1410.353,44.72,1385.806,88.041C1361.656,130.661,1354.407,181.691,1377.483,224.901C1401.886,270.596,1448.376,303.198,1500.169,302.185" fill="rgba(28, 83, 142, 0.4)" class="triangle-float1"></path><path d="M609.91 132.96 a169.4 169.4 0 1 0 338.8 0 a169.4 169.4 0 1 0 -338.8 0z" fill="rgba(28, 83, 142, 0.4)" class="triangle-float1"></path><path d="M729.59 346.86 a185.38 185.38 0 1 0 370.76 0 a185.38 185.38 0 1 0 -370.76 0z" fill="rgba(28, 83, 142, 0.4)" class="triangle-float1"></path><path d="M254.6297394592524 394.52120456635043L272.0684092853183 304.80702567948265 182.35423039845054 287.3683558534167 164.9155605723846 377.08253474028453z" fill="rgba(28, 83, 142, 0.4)" class="triangle-float1"></path><path d="M66.15 131.54 a97.34 97.34 0 1 0 194.68 0 a97.34 97.34 0 1 0 -194.68 0z" fill="rgba(28, 83, 142, 0.4)" class="triangle-float3"></path></g><defs><mask id="SvgjsMask1532"><rect width="1440" height="560" fill="#ffffff"></rect></mask><linearGradient x1="15.28%" y1="-39.29%" x2="84.72%" y2="139.29%" gradientUnits="userSpaceOnUse" id="SvgjsLinearGradient1533"><stop stop-color="#0e2a47" offset="0"></stop><stop stop-color="rgba(184, 152, 161, 1)" offset="1"></stop></linearGradient><style>
                @keyframes float1 {
                    0%{transform: translate(0, 0)}
                    50%{transform: translate(-10px, 0)}
                    100%{transform: translate(0, 0)}
                }

                .triangle-float1 {
                    animation: float1 5s infinite;
                }

                @keyframes float2 {
                    0%{transform: translate(0, 0)}
                    50%{transform: translate(-5px, -5px)}
                    100%{transform: translate(0, 0)}
                }

                .triangle-float2 {
                    animation: float2 4s infinite;
                }

                @keyframes float3 {
                    0%{transform: translate(0, 0)}
                    50%{transform: translate(0, -10px)}
                    100%{transform: translate(0, 0)}
                }

                .triangle-float3 {
                    animation: float3 6s infinite;
                }
            </style></defs></svg>