<svg id="visual" viewBox="0 0 675 900" width="675" height="900" xmlns="http://www.w3.org/2000/svg" xmlns:xlink="http://www.w3.org/1999/xlink" version="1.1"><rect x="0" y="0" width="675" height="900" fill="#002233"></rect><path d="M0 682L16 677.7C32 673.3 64 664.7 96.2 665.3C128.3 666 160.7 676 192.8 665.5C225 655 257 624 289.2 620.3C321.3 616.7 353.7 640.3 385.8 644.3C418 648.3 450 632.7 482.2 625.7C514.3 618.7 546.7 620.3 578.8 640.8C611 661.3 643 700.7 659 720.3L675 740L675 901L659 901C643 901 611 901 578.8 901C546.7 901 514.3 901 482.2 901C450 901 418 901 385.8 901C353.7 901 321.3 901 289.2 901C257 901 225 901 192.8 901C160.7 901 128.3 901 96.2 901C64 901 32 901 16 901L0 901Z" fill="#C62368" stroke-linecap="round" stroke-linejoin="miter"></path></svg>